<svg xmlns="http://www.w3.org/2000/svg" xmlns:xlink="http://www.w3.org/1999/xlink" version="1.1" id="Layer_1" x="0px" y="0px" width="100px" height="94.921875px" viewBox="21.66665 144.7995 256.173 328.59675" enable-background="new 8.858 169.14 256.173 243.405" xml:space="preserve">
<g>
	<path d="M63.864,406.785c11.284-2.239,19.007-12.432,23.404-22.951H81.3c-2.545,0-5.064-0.051-7.555-0.164   c-2.587,5.292-6.514,9.869-12.376,10.785c-1.811-1.566-4.137-2.546-6.719-2.546c-5.699,0-10.318,4.62-10.318,10.319   c0,5.698,4.62,10.317,10.318,10.317C58.707,412.546,62.18,410.185,63.864,406.785z"/>
	<path d="M224.791,412.546c5.699,0,10.318-4.619,10.318-10.317c0-5.699-4.619-10.319-10.318-10.319   c-2.276,0-4.363,0.761-6.068,2.013c-5.006-1.668-8.601-6.064-11.099-10.962c-3.822,0.664-7.219,0.874-9.77,0.874h-0.676h-0.391   h-3.422c3.604,9.891,10.272,19.494,21.95,22.468C216.896,409.971,220.541,412.546,224.791,412.546z"/>
	<path d="M207.895,215.587l-21.089-21.095c-3.873,0.987-15.744,8.643-19.294,12.347l28.066,28.066   C199.258,231.386,206.833,219.631,207.895,215.587z"/>
	<path d="M167.828,223.487c0.538,0,1.076-0.207,1.486-0.614l2.969-2.969c0.19-0.189,0.32-0.407,0.421-0.634   c0.345-0.772,0.21-1.701-0.421-2.335c-0.629-0.633-1.561-0.764-2.334-0.419c-0.227,0.101-0.445,0.235-0.635,0.419l-2.973,2.965   c-0.818,0.819-0.818,2.15,0,2.969C166.753,223.28,167.291,223.487,167.828,223.487z"/>
	<path d="M158.916,232.393c0.538,0,1.076-0.206,1.487-0.613l2.969-2.97c0.819-0.818,0.819-2.15,0-2.968   c-0.818-0.819-2.15-0.819-2.969,0l-2.969,2.968c-0.818,0.82-0.818,2.151,0,2.97C157.845,232.192,158.378,232.393,158.916,232.393z"/>
	<path d="M150.009,241.305c0.538,0,1.075-0.206,1.486-0.613l2.97-2.969c0.819-0.819,0.819-2.15,0-2.969s-2.15-0.818-2.97,0   l-2.969,2.969c-0.818,0.819-0.818,2.151,0,2.969C148.934,241.099,149.471,241.305,150.009,241.305z"/>
	<path d="M178.637,225.204c0.345-0.773,0.215-1.706-0.42-2.335c-0.634-0.634-1.562-0.765-2.334-0.42   c-0.228,0.101-0.445,0.235-0.636,0.42l-2.968,2.974c-0.819,0.818-0.819,2.15,0,2.968c0.411,0.412,0.948,0.614,1.486,0.614   c0.537,0,1.075-0.206,1.486-0.614l2.97-2.973C178.408,225.654,178.537,225.435,178.637,225.204z"/>
	<path d="M169.311,231.781c-0.818-0.819-2.15-0.819-2.97,0l-2.97,2.969c-0.818,0.819-0.818,2.151,0,2.969   c0.412,0.411,0.95,0.613,1.487,0.613s1.076-0.206,1.487-0.613l2.968-2.969C170.129,233.93,170.129,232.599,169.311,231.781z"/>
	<path d="M160.403,240.687c-0.818-0.818-2.149-0.818-2.969,0l-2.969,2.973c-0.819,0.819-0.819,2.151,0,2.97   c0.411,0.411,0.948,0.613,1.485,0.613c0.538,0,1.076-0.206,1.487-0.613l2.969-2.973   C161.221,242.838,161.221,241.507,160.403,240.687z"/>
	<path d="M179.704,235.363c0.538,0,1.076-0.207,1.487-0.614l2.969-2.969c0.189-0.189,0.32-0.408,0.42-0.634   c0.345-0.772,0.21-1.701-0.42-2.335c-0.63-0.633-1.562-0.764-2.335-0.419c-0.227,0.101-0.448,0.235-0.634,0.419l-2.969,2.97   c-0.818,0.818-0.818,2.15,0,2.969C178.629,235.161,179.167,235.363,179.704,235.363z"/>
	<path d="M170.797,244.274c0.537,0,1.074-0.206,1.485-0.614l2.97-2.969c0.819-0.818,0.819-2.15,0-2.969   c-0.818-0.819-2.149-0.819-2.97,0l-2.969,2.969c-0.818,0.819-0.818,2.15,0,2.969C169.722,244.068,170.259,244.274,170.797,244.274z   "/>
	<path d="M161.885,253.181c0.538,0,1.075-0.206,1.486-0.613l2.97-2.969c0.819-0.819,0.819-2.15,0-2.969   c-0.818-0.819-2.15-0.819-2.97,0l-2.969,2.969c-0.818,0.819-0.818,2.151,0,2.969C160.814,252.976,161.352,253.181,161.885,253.181z   "/>
	<path d="M256.632,278.845h-6.3h-6.299v-96.59c0-2.318-1.878-4.199-4.2-4.199H221.59c-1.054,0-2.07,0.395-2.847,1.108   l-15.093,13.897c-3.432-0.87-7.346,0.302-9.761,1.285l14.422,14.425c1.041-2.688,2.008-6.358,1.188-9.676l13.732-12.64h12.4v92.39   H23.557h-6.299c-4.641,0-8.399,3.758-8.399,8.398v8.399c0,4.641,3.759,8.4,8.399,8.4h0.937h1.848h2.44   c0.639,3.25,1.461,6.987,2.503,11.296l5.879,28.171c8.227,30.447,24.887,35.39,44.629,36.028c1.911,0.059,3.842,0.096,5.808,0.096   h7.563L192,379.638c-0.004-0.021-0.009-0.038-0.017-0.06c0.004,0.018,0.008,0.038,0.017,0.055h5.854   c2.382,0,5.111-0.15,8.038-0.583l0,0c12.915-1.903,29.688-9.269,37.523-33.323l9.554-41.685h2.487h1.176   c0.226,0,0.437-0.052,0.659-0.068c4.325-0.34,7.739-3.917,7.739-8.332v-8.399C265.031,282.603,261.272,278.845,256.632,278.845z    M189.691,366.602L189.691,366.602c0,0.025,0.004,0.055,0.009,0.08C189.695,366.657,189.691,366.628,189.691,366.602z"/>
</g>
</svg>
