<svg xmlns="http://www.w3.org/2000/svg" xmlns:xlink="http://www.w3.org/1999/xlink" version="1.1" id="Layer_1" x="0px" y="0px" width="100px" height="100px" viewBox="5.0 -10.0 100.0 135.0" enable-background="new 0 0 100 100" xml:space="preserve">
<path d="M46.802,98.553c0,0-12.007,1.163-16.654-5.615c-4.648-6.778-7.123-11.221-7.94-22.658c-0.387-5.423-7.553-9.49-7.553-9.49  S-4.828,45.554,3.228,35.42c6.004-7.553,13.75,5.035,13.75,5.035s6.003,11.814,7.553,12.587c1.549,0.775,3.874,0,3.679-2.517  c-0.193-2.519-8.715-25.952-8.908-28.663c-0.194-2.711-1.743-10.07,6.003-12.2s9.49,7.358,9.49,8.521  c0,1.163,0.968,18.786,0.968,21.69s0.582,8.133,1.744,8.909c1.162,0.774,2.131,1.743,3.485-0.388  c1.355-2.129,1.355-7.166,0.774-12.975c-0.58-5.811-3.292-21.497-0.968-25.177c2.324-3.679,3.874-6.197,8.134-5.616  c4.26,0.581,8.908,3.873,8.326,11.813c-0.58,7.94-3.679,12.201-4.454,17.43c-0.774,5.229-1.548,12.395-0.58,14.524  c0.968,2.131,2.13,2.131,3.874,0.388c1.742-1.743,5.809-25.758,7.357-29.243c1.549-3.486,4.647-8.328,9.877-6.004  c5.23,2.324,5.812,5.617,1.162,17.042c-4.646,11.426-9.102,26.338-8.715,30.018c0.388,3.679,1.551,5.034,3.294,5.616  c1.742,0.581,5.421,0.581,12.006-4.26c6.586-4.843,15.105-2.131,16.656,2.13c1.55,4.261,3.873,11.039-8.33,11.619  c-12.2,0.582-13.168,2.904-15.298,6.778c-2.131,3.874-6.973,13.751-14.138,14.912C52.805,98.553,46.802,98.553,46.802,98.553z"/>
</svg>
