<svg xmlns="http://www.w3.org/2000/svg" xmlns:xlink="http://www.w3.org/1999/xlink" version="1.1" id="Layer_1" x="0px" y="0px" width="100px" height="100px" viewBox="5.0 -10.0 100.0 135.0" enable-background="new 0 0 100 100" xml:space="preserve">
<path fill="#000000" d="M89.222,32.368c-3.09-2.343-2.549,10.643-19.604,12.638c-7.823,0.915-14.457-0.505-20.066-2.389  c6.137-4.041,10.192-10.982,10.192-18.878c0-12.48-10.116-22.598-22.597-22.598c-10.894,0-19.981,7.707-22.119,17.964  c-8.126-1.708-14.708-3.23-14.708,3.742c0,6.481,9.652,12.936,19.916,16.83C9.551,44.448,2.099,55.16,2.099,67.618  c0,16.895,13.79,28.836,30.593,30.592c23.859,2.494,52.163-1.592,62.851-23.055C103.188,59.804,99.754,40.35,89.222,32.368z"/>
</svg>
