<svg xmlns="http://www.w3.org/2000/svg" xmlns:xlink="http://www.w3.org/1999/xlink" version="1.1" id="Your_Icon" x="0px" y="0px" width="100px" height="100px" viewBox="5.0 -10.0 100.0 135.0" enable-background="new 0 0 100 100" xml:space="preserve">
<g>
	<path fill="#000000" d="M50.753,34.387c-1.981,0-3.594,1.613-3.594,3.595v16.784H30.657c-1.982,0-3.594,1.609-3.594,3.592   c0,1.986,1.612,3.6,3.594,3.6h20.096c1.985,0,3.6-1.613,3.6-3.6V37.982C54.354,36,52.738,34.387,50.753,34.387z"/>
	<path fill="#000000" d="M88.145,54.906c0-12.535-6.424-24.121-17.215-31.101l1.654-2.664c3.422,2.202,6.475,4.891,9.082,8   l0.643,0.764l2.49-6.806l0.018-0.051c0.914-3.106-1.633-6.663-7.367-10.303l2.506-4.239l0.303-0.534L80.191,7.94   c0.053-0.194,0.082-0.394,0.082-0.598c0-1.295-1.088-2.348-2.424-2.348c-0.744,0-1.445,0.334-1.9,0.892h-0.035l-2.65,4.491   c-3.598-1.806-6.645-2.72-9.064-2.72c-1.791,0-3.207,0.508-4.207,1.509l-4.824,5.671l1.016,0.15   c4.264,0.627,8.371,1.902,12.215,3.787l-1.662,2.675c-5.373-2.604-11.145-3.924-17.169-3.924c-6.021,0-11.792,1.319-17.164,3.924   l-1.662-2.675c3.853-1.888,7.958-3.16,12.21-3.782l1.017-0.149l-4.788-5.636l-0.036-0.039c-0.999-1.002-2.414-1.51-4.205-1.51   c-2.418,0-5.466,0.915-9.067,2.72l-2.476-4.201l-0.384-0.639l-0.083,0.078c-0.441-0.397-1.02-0.622-1.644-0.622   c-1.333,0-2.419,1.053-2.419,2.348c0,0.103,0.007,0.205,0.021,0.306h-0.208l3.007,5.097c-5.735,3.647-8.279,7.203-7.362,10.304   l2.502,6.856l0.642-0.764c2.612-3.109,5.666-5.798,9.082-8l1.656,2.664C17.42,30.781,11,42.366,11,54.906   C11,67.6,16.954,78.67,27.946,85.619l-3.406,5.566l-0.496,0.857h0.2c-0.015,0.104-0.022,0.207-0.022,0.311   c0,1.295,1.975,2.646,3.312,2.646c0.742,0,1.442-0.34,1.9-0.902h0.035l3.288-5.574c5.271,2.49,10.927,3.754,16.815,3.754   c5.887,0,11.54-1.264,16.811-3.754l3.117,5.285l0.182,0.289h0.029C70.168,94.66,70.867,95,71.605,95   c1.338,0,3.312-1.646,3.312-2.943c0-0.102-0.008-0.205-0.023-0.307h0.211l-3.617-6.131C82.484,78.662,88.145,67.592,88.145,54.906z    M78.482,54.904c0,15.443-12.971,28.012-28.916,28.012c-15.94,0-28.91-12.568-28.91-28.012c0-15.451,12.969-28.022,28.91-28.022   C65.512,26.882,78.482,39.453,78.482,54.904z"/>
</g>
</svg>
